<?xml version="1.0" standalone="no"?>
<!DOCTYPE svg PUBLIC "-//W3C//DTD SVG 20010904//EN"
 "http://www.w3.org/TR/2001/REC-SVG-20010904/DTD/svg10.dtd">
<svg version="1.0" xmlns="http://www.w3.org/2000/svg"
 width="512.000000pt" height="512.000000pt" viewBox="0 0 512.000000 512.000000"
 preserveAspectRatio="xMidYMid meet">

<g transform="translate(0.000000,512.000000) scale(0.100000,-0.100000)"
fill="#000000" stroke="none">
<path d="M1664 3892 c-21 -14 -23 -46 -24 -297 -1 -140 -5 -257 -10 -260 -4
-3 -6 -14 -3 -25 3 -11 0 -20 -6 -20 -8 0 -6 -8 3 -23 15 -22 12 -67 -4 -67
-5 0 -6 -9 -3 -19 3 -10 -2 -30 -10 -42 -8 -13 -18 -44 -22 -69 -13 -85 -44
-196 -74 -262 -30 -65 -30 -69 -30 -234 0 -93 -2 -203 -5 -244 -2 -41 0 -95 6
-120 17 -76 18 -200 2 -200 -27 0 -36 -41 -32 -151 2 -59 7 -111 11 -115 16
-16 47 29 47 69 0 62 49 449 66 530 9 40 20 90 24 113 16 78 72 170 143 235
22 20 40 47 41 59 1 31 33 51 46 30 9 -13 12 -13 21 3 6 9 14 15 19 12 18 -11
111 -16 105 -5 -3 6 -11 7 -17 4 -6 -4 -9 -1 -6 7 6 18 68 22 87 6 12 -10 14
-9 8 5 -4 12 -2 15 9 11 15 -5 75 15 85 29 8 11 100 12 194 0 50 -6 87 -6 99
0 10 6 28 7 40 3 43 -13 141 -16 167 -4 35 14 55 4 37 -19 -11 -13 -11 -14 2
-7 21 13 165 7 220 -9 25 -8 48 -14 53 -14 19 -2 86 -36 82 -43 -8 -12 53 -71
65 -64 27 17 65 -69 74 -166 3 -32 17 -65 85 -197 31 -60 78 -254 97 -397 16
-117 16 -187 1 -727 -1 -27 -5 -48 -10 -48 -4 0 -6 -9 -2 -19 3 -11 1 -22 -5
-26 -7 -4 -9 -18 -6 -31 5 -18 2 -24 -9 -24 -11 0 -15 -6 -10 -19 3 -12 0 -21
-10 -25 -11 -4 -14 -13 -9 -32 5 -19 2 -31 -8 -38 -8 -6 -17 -17 -19 -25 -4
-11 -8 -10 -23 4 -14 14 -22 16 -42 7 -13 -7 -24 -17 -24 -23 0 -8 -5 -8 -15
1 -9 7 -18 11 -21 8 -5 -6 -64 46 -64 56 0 3 7 6 15 6 21 0 19 8 -15 47 l-31
34 23 19 c13 11 17 19 10 20 -7 0 -11 4 -8 9 3 4 -1 17 -9 27 -8 10 -15 26
-15 35 0 10 -16 31 -37 49 -52 46 -174 123 -201 127 l-23 4 20 -39 c21 -41 19
-50 -15 -69 -17 -9 -26 -9 -40 1 -11 7 -36 16 -57 20 -21 4 -35 11 -32 16 3 4
-4 6 -15 3 -11 -3 -20 -1 -20 4 0 15 50 63 65 63 7 0 19 10 27 22 14 21 13 25
-11 45 -35 30 -39 29 -47 -12 -8 -42 -28 -55 -86 -55 -64 0 -170 -74 -127 -89
20 -6 -58 -29 -103 -29 -46 -1 -69 9 -107 44 -38 36 -73 47 -119 37 l-40 -8
18 -38 19 -39 -27 -24 c-31 -26 -42 -30 -42 -11 -1 7 -6 4 -15 -7 -7 -10 -18
-15 -24 -11 -6 3 -11 1 -11 -4 0 -6 -13 -11 -29 -11 -26 0 -29 4 -33 36 -3 24
4 53 19 86 27 58 28 65 10 82 -11 11 -17 11 -30 1 -9 -7 -17 -15 -17 -19 0 -4
-15 -31 -33 -59 -51 -82 -55 -89 -87 -149 -33 -63 -37 -103 -15 -132 20 -26
19 -63 -2 -74 -14 -8 -15 -14 -3 -41 7 -18 20 -31 30 -31 22 0 50 -41 50 -74
0 -14 4 -27 9 -30 5 -3 11 -17 13 -31 4 -21 1 -25 -18 -25 -13 0 -24 -4 -24
-10 0 -5 -4 -10 -10 -10 -5 0 -10 7 -10 15 0 8 -8 15 -19 15 -10 0 -30 11 -44
25 -17 18 -26 22 -30 13 -13 -35 -135 130 -153 207 -4 17 -10 35 -14 40 -9 12
-17 95 -30 291 -5 88 -14 151 -21 158 -9 8 -10 -27 -4 -149 4 -88 8 -188 9
-222 2 -40 8 -69 18 -80 31 -36 47 -145 50 -340 l3 -163 -35 0 c-19 0 -73 -16
-120 -35 -47 -19 -98 -35 -114 -35 -16 0 -53 -14 -83 -30 -51 -29 -56 -30
-116 -21 -215 33 -252 25 -288 -59 -38 -89 -121 -136 -299 -170 -63 -12 -144
-33 -180 -47 -36 -14 -78 -27 -95 -30 -16 -3 -45 -19 -63 -34 l-33 -29 880 0
880 0 -3 22 c-1 13 -7 32 -13 43 -15 29 -26 98 -15 91 6 -4 7 7 2 29 -7 30 -5
35 9 33 23 -4 34 -23 61 -103 12 -38 29 -80 38 -92 l14 -23 480 0 c477 0 479
0 508 22 35 26 39 42 8 32 -19 -6 -17 -2 9 20 19 16 30 33 26 41 -3 10 2 15
16 15 12 0 21 5 21 11 0 5 4 8 9 4 5 -3 25 2 43 11 25 12 33 22 35 45 2 21 -2
29 -15 30 -14 0 -13 3 6 16 21 15 21 16 5 29 -11 8 -13 13 -5 14 6 0 12 11 12
25 0 14 5 24 11 22 6 -1 15 7 19 19 7 18 5 20 -18 16 -26 -5 -26 -5 7 27 18
18 31 35 28 37 -3 3 -1 19 3 35 6 19 5 29 -2 29 -6 0 -4 8 5 18 8 9 18 31 22
47 14 64 42 131 63 154 9 9 12 25 8 45 -4 20 -3 27 3 21 6 -6 15 -53 21 -105
7 -53 19 -107 28 -121 9 -15 36 -55 60 -90 43 -64 46 -75 43 -144 -3 -57 -22
-95 -47 -95 -17 0 -20 -5 -16 -25 3 -20 1 -24 -12 -19 -10 4 -16 1 -16 -7 0
-9 -3 -10 -8 -4 -11 15 -62 14 -62 -1 0 -17 -37 -37 -56 -30 -8 3 -13 2 -9 -3
3 -5 2 -11 -2 -14 -5 -2 -2 -2 5 -1 20 5 14 -17 -12 -37 -13 -10 -33 -35 -45
-54 l-20 -35 527 0 c484 1 525 2 498 16 l-29 16 29 24 c33 27 18 32 -28 8 -30
-16 -31 -15 -72 24 -42 41 -248 197 -269 205 -7 2 -10 7 -7 9 3 3 156 62 340
131 600 226 815 308 822 315 10 10 32 321 24 330 -4 4 -33 8 -64 9 -71 2 -70
2 -53 12 14 9 -17 23 -146 62 l-73 22 0 41 c1 64 28 518 32 521 2 2 26 7 53
12 l50 8 7 75 c5 41 17 249 27 462 11 214 23 392 26 398 3 5 28 10 56 10 l49
0 2 70 c0 39 1 76 2 83 1 8 -17 13 -53 15 l-53 3 7 127 c4 70 9 130 12 135 2
4 35 7 72 7 l69 0 4 31 c3 17 0 32 -6 34 -6 2 -76 6 -156 10 -159 7 -296 25
-165 22 l70 -2 8 144 c4 79 5 146 3 148 -2 2 -55 7 -117 9 l-114 5 32 -28 c28
-25 30 -30 17 -47 -12 -17 -12 -22 1 -36 19 -21 19 -30 0 -30 -13 0 -13 -4 -3
-22 7 -13 17 -26 22 -29 13 -10 -1 -39 -18 -39 -13 0 -32 -44 -27 -64 1 -5
-50 -6 -121 -2 -179 10 -217 16 -211 32 3 8 -2 16 -10 20 -23 8 -9 34 19 34
27 0 32 15 9 24 -22 8 -18 35 7 45 22 8 22 8 -5 26 -15 9 -27 25 -27 35 0 20
33 53 43 43 4 -3 7 -1 7 5 0 6 14 19 31 28 19 9 28 19 22 25 -10 10 -122 28
-408 64 -294 36 -905 103 -1018 111 -88 6 -97 5 -91 -10 5 -13 0 -16 -25 -16
-34 0 -42 -19 -11 -27 11 -3 20 -9 20 -14 0 -5 8 -9 18 -9 13 0 14 2 3 9 -9 6
-10 11 -2 15 13 9 57 -14 45 -23 -5 -3 -10 -15 -11 -27 -2 -16 7 -23 45 -34
29 -8 40 -15 30 -17 -31 -7 -20 -23 11 -17 23 5 36 0 56 -19 l27 -24 -91 1
c-77 2 -91 0 -86 -13 3 -8 0 -18 -6 -22 -10 -6 47 -22 114 -31 29 -5 25 -23
-5 -26 -23 -3 -28 -8 -28 -29 0 -23 -3 -25 -30 -19 -39 7 -81 37 -75 54 5 14
-4 15 -25 2 -13 -9 -13 -11 0 -19 25 -17 4 -22 -44 -11 -26 6 -50 9 -54 7 -7
-4 -35 11 -87 47 -22 16 -42 19 -100 18 -82 -3 -112 13 -100 52 4 12 7 41 6
66 0 24 6 54 14 66 12 19 12 23 -1 28 -19 7 -9 26 14 26 26 0 43 15 37 32 -9
22 -77 41 -208 58 -40 5 -187 25 -327 45 -282 39 -271 38 -286 27z m1571 -554
c189 -16 129 -23 -86 -9 -99 6 -166 15 -173 22 -8 9 3 10 49 5 33 -3 128 -11
210 -18z m908 -65 c-13 -2 -33 -2 -45 0 -13 2 -3 4 22 4 25 0 35 -2 23 -4z
m-262 -683 c26 0 29 -3 29 -30 0 -27 -3 -30 -27 -28 -21 2 -28 -2 -34 -22 -4
-16 -7 -19 -8 -7 -1 21 -3 21 -52 -3 -22 -12 -37 -25 -34 -30 4 -6 -3 -10 -14
-10 -12 0 -21 6 -22 13 0 10 -2 10 -6 0 -8 -21 -36 -15 -60 15 -17 20 -22 23
-23 10 0 -18 -26 -48 -41 -48 -5 0 -9 18 -9 40 0 25 -5 40 -12 41 -7 0 -26 2
-41 4 -23 3 -26 1 -18 -9 9 -11 6 -15 -14 -18 -23 -5 -25 -3 -23 33 l1 39 101
1 c56 1 135 5 176 9 41 3 81 5 88 3 8 -2 27 -3 43 -3z m329 -47 c0 -32 -6
-146 -14 -253 -7 -107 -13 -206 -13 -220 -1 -14 -4 -65 -8 -113 -8 -83 -10
-90 -34 -100 -14 -6 -29 -16 -33 -22 -4 -5 -8 -6 -8 -1 0 5 -9 1 -20 -9 -11
-10 -20 -29 -20 -42 0 -23 -14 -31 -24 -14 -4 5 -1 11 6 13 13 5 2 28 -13 28
-6 0 -7 -5 -3 -12 5 -7 0 -9 -14 -6 -15 4 -19 2 -15 -8 3 -8 -1 -14 -10 -14
-9 0 -20 -7 -24 -15 -5 -9 -17 -12 -30 -9 -18 5 -21 11 -17 38 9 47 13 58 23
52 27 -17 15 88 -12 105 -12 9 -10 285 4 331 5 18 9 48 9 66 0 18 7 44 16 58
17 25 17 28 -4 146 -6 32 -5 49 2 52 6 2 66 5 134 5 l122 1 0 -57z m-720 -83
c8 -15 8 -18 -3 -14 -8 3 -14 11 -14 19 0 20 4 19 17 -5z m45 2 c-3 -3 -11 0
-18 7 -9 10 -8 11 6 5 10 -3 15 -9 12 -12z m256 -106 c2 -36 -1 -50 -13 -57
-15 -9 -15 -14 2 -64 18 -54 21 -164 6 -295 -4 -35 -2 -41 6 -28 11 14 13 14
30 -7 10 -13 18 -29 18 -37 0 -17 -64 -81 -72 -73 -3 3 -23 -10 -44 -29 -21
-19 -52 -37 -70 -41 -52 -9 -70 -33 -83 -106 -6 -37 -11 -85 -11 -108 0 -82
-67 -162 -105 -125 -16 16 -17 22 -20 114 -3 99 3 123 37 143 30 17 31 19 25
73 -4 41 -11 60 -26 71 -12 8 -21 24 -21 35 0 12 -7 29 -16 39 -14 15 -14 25
-4 66 6 26 11 56 11 65 0 10 11 37 24 61 14 27 20 49 15 58 -5 7 -7 26 -5 41
7 56 7 193 -1 217 -6 21 -5 22 13 12 21 -11 83 5 83 21 0 4 8 8 18 8 13 0 14
-2 3 -9 -11 -7 -8 -11 10 -17 13 -4 27 -8 30 -9 3 0 13 -7 22 -17 10 -9 25
-14 37 -11 20 5 20 7 4 24 -16 17 -15 18 5 14 21 -4 25 3 22 37 -2 12 3 16 12
12 8 -3 18 0 22 7 12 19 34 -31 36 -85z m-276 44 c3 -6 -1 -7 -9 -4 -18 7 -21
14 -7 14 6 0 13 -4 16 -10z m397 -37 c1 -21 -2 -67 -6 -71 -2 -1 -11 0 -20 4
-16 6 -23 63 -9 77 13 13 33 7 35 -10z m-105 -405 c-3 -8 -6 -5 -6 6 -1 11 2
17 5 13 3 -3 4 -12 1 -19z m88 -88 c4 -6 -5 -10 -20 -10 -15 0 -24 4 -20 10 3
6 12 10 20 10 8 0 17 -4 20 -10z m735 -29 c0 -17 -12 -41 -21 -41 -5 0 -9 11
-9 25 0 16 6 25 15 25 8 0 15 -4 15 -9z m-1185 -149 c-3 -8 -5 -19 -6 -25 -1
-17 -17 34 -18 58 0 20 0 20 15 0 8 -11 12 -26 9 -33z m715 23 c0 -11 -12 -15
-46 -15 -40 0 -45 2 -34 15 7 8 28 15 46 15 24 0 34 -5 34 -15z m-398 -27 c-7
-7 -12 -8 -12 -2 0 14 12 26 19 19 2 -3 -1 -11 -7 -17z m-1414 -604 c42 -6 50
-9 41 -20 -6 -8 -20 -14 -31 -14 -15 0 -18 -5 -13 -20 5 -15 3 -18 -9 -14 -9
3 -23 -1 -32 -10 -9 -9 -24 -14 -33 -12 -23 7 -160 19 -198 17 -37 -2 -42 8
-15 31 23 20 50 29 57 18 3 -4 19 -2 36 7 17 8 44 13 60 11 16 -3 32 -1 35 4
6 10 31 10 102 2z m447 -4 c4 -6 -7 -10 -27 -9 -27 0 -30 2 -13 9 27 12 33 12
40 0z m-122 -103 c16 -41 -24 -96 -59 -83 -8 3 -30 -1 -49 -8 -18 -8 -36 -12
-39 -8 -4 3 -13 -3 -20 -14 -11 -14 -28 -20 -73 -21 -32 -1 -70 -5 -84 -9 -15
-3 -41 0 -60 9 -74 31 -89 36 -103 31 -21 -8 -46 24 -46 62 0 39 5 41 33 17
15 -13 21 -15 24 -5 6 17 28 15 43 -3 12 -14 15 -14 31 1 14 13 29 15 65 10
27 -3 64 -1 86 6 31 9 44 9 60 -1 16 -10 23 -10 37 3 21 19 35 20 61 4 16 -10
23 -10 37 5 20 20 49 22 56 4z m212 -67 c3 -5 0 -7 -9 -4 -10 4 -13 0 -11 -13
13 -63 17 -73 28 -70 6 1 12 -6 11 -15 -3 -63 -4 -68 -24 -68 -25 0 -25 -9 -2
-26 11 -9 13 -13 4 -14 -7 0 -20 -7 -28 -15 -14 -13 -14 -15 0 -15 19 0 20 -7
5 -49 -7 -21 -16 -30 -25 -27 -10 4 -14 -3 -14 -22 0 -15 -7 -36 -15 -46 -8
-11 -15 -16 -15 -12 0 5 -6 3 -13 -3 -8 -6 -17 -8 -20 -4 -4 3 -7 1 -7 -5 0
-27 -63 -73 -106 -77 -41 -4 -52 -12 -47 -39 3 -15 1 -26 -6 -26 -6 0 -11 6
-12 13 0 6 -5 -3 -11 -22 -7 -25 -12 -31 -18 -21 -7 11 -12 11 -32 -1 -15 -11
-34 -13 -56 -8 -18 3 -35 2 -38 -3 -4 -6 -10 -6 -17 1 -14 14 -30 14 -22 1 8
-12 -32 -9 -53 4 -7 4 -19 2 -28 -4 -12 -10 -18 -9 -33 9 -10 11 -23 21 -30
21 -6 0 -11 7 -11 15 0 8 -4 15 -8 15 -5 0 -14 10 -20 23 -8 16 -11 18 -11 6
-1 -12 -9 -16 -26 -15 -14 0 -25 3 -25 6 0 4 -16 12 -35 19 -32 11 -40 21 -36
44 0 4 -4 7 -9 7 -6 0 -10 7 -10 15 0 8 -4 15 -9 15 -5 0 -11 10 -15 23 -5 18
-8 20 -16 7 -13 -20 -13 -4 0 20 8 16 7 18 -4 14 -9 -3 -17 3 -21 17 -4 13
-14 29 -22 37 -12 12 -12 17 3 33 15 16 15 19 2 19 -11 0 -20 20 -32 70 -14
65 -14 74 0 110 9 22 19 40 23 41 3 0 16 2 28 5 17 3 35 -8 68 -39 28 -28 49
-41 57 -36 7 5 31 6 53 3 22 -3 105 -7 185 -9 131 -2 204 -8 268 -21 22 -4 33
-44 12 -44 -19 0 -10 -28 11 -33 17 -5 35 7 80 52 33 32 59 64 59 71 0 17 67
80 85 80 8 0 17 -4 20 -10z m235 0 c0 -5 -2 -10 -4 -10 -3 0 -8 5 -11 10 -3 6
-1 10 4 10 6 0 11 -4 11 -10z m512 -19 c8 12 10 12 15 0 5 -11 7 -11 14 0 7
11 9 10 9 -4 0 -10 -9 -27 -20 -39 -17 -19 -20 -19 -20 -5 0 9 -4 17 -10 17
-5 0 -9 12 -9 28 1 19 3 21 6 8 4 -15 7 -16 15 -5z m-972 -81 c0 -5 -4 -10
-10 -10 -5 0 -10 5 -10 10 0 6 5 10 10 10 6 0 10 -4 10 -10z m-803 -462 c-3
-8 -6 -5 -6 6 -1 11 2 17 5 13 3 -3 4 -12 1 -19z"/>
<path d="M3565 2550 c3 -5 8 -10 11 -10 2 0 4 5 4 10 0 6 -5 10 -11 10 -5 0
-7 -4 -4 -10z"/>
<path d="M3595 2550 c-3 -6 1 -7 9 -4 18 7 21 14 7 14 -6 0 -13 -4 -16 -10z"/>
<path d="M3640 2530 c0 -5 5 -10 10 -10 6 0 10 5 10 10 0 6 -4 10 -10 10 -5 0
-10 -4 -10 -10z"/>
<path d="M4120 2500 c0 -20 -14 -25 -55 -21 -19 2 -19 1 0 -13 19 -13 51 -14
64 0 9 9 8 54 -1 54 -4 0 -8 -9 -8 -20z"/>
<path d="M3750 2414 c0 -8 5 -12 10 -9 6 3 10 10 10 16 0 5 -4 9 -10 9 -5 0
-10 -7 -10 -16z"/>
<path d="M3485 2040 c-17 -19 -17 -22 0 -77 10 -32 31 -85 47 -118 l28 -60 -5
109 c-7 143 -29 191 -70 146z"/>
<path d="M3510 1606 c-6 -9 -10 -21 -8 -28 3 -8 9 -4 17 10 15 28 9 39 -9 18z"/>
<path d="M2596 723 c-3 -4 -27 -8 -52 -9 -52 -2 -66 -11 -41 -28 9 -7 17 -18
17 -23 0 -9 -114 -18 -280 -23 -57 -1 -68 -12 -47 -44 22 -33 101 -68 155 -70
24 -1 47 -8 51 -15 6 -9 10 -10 12 -2 3 7 29 13 60 15 56 4 129 24 129 37 0 4
11 10 25 13 22 6 102 75 93 80 -47 25 -57 27 -93 17 -36 -10 -67 -4 -37 6 10
4 8 9 -5 20 -10 8 -13 12 -8 9 13 -6 42 10 34 18 -3 4 -9 3 -13 -1z"/>
<path d="M2285 690 c3 -5 8 -10 11 -10 2 0 4 5 4 10 0 6 -5 10 -11 10 -5 0 -7
-4 -4 -10z"/>
<path d="M1965 640 c-3 -5 -1 -10 4 -10 6 0 11 5 11 10 0 6 -2 10 -4 10 -3 0
-8 -4 -11 -10z"/>
<path d="M2835 2208 c-44 -10 -100 -23 -125 -29 -25 -6 -58 -17 -74 -25 -16
-8 -35 -14 -43 -14 -7 0 -16 -7 -19 -15 -4 -8 -17 -15 -30 -15 -13 0 -32 -9
-41 -20 -10 -11 -27 -20 -39 -20 -22 0 -39 -24 -28 -41 3 -6 1 -16 -5 -23 -13
-16 -4 -45 21 -66 10 -8 23 -39 28 -69 6 -30 15 -59 20 -66 5 -6 6 -16 2 -20
-4 -5 -2 -5 4 -2 6 3 41 -4 78 -17 53 -19 83 -23 144 -20 42 1 89 3 105 3 28
1 40 31 12 31 -8 0 -15 5 -15 10 0 6 3 9 8 8 13 -4 86 24 130 49 30 17 58 24
95 25 28 0 55 5 59 11 13 22 -16 54 -72 81 -59 28 -59 28 -42 51 13 17 21 21
34 14 23 -12 38 -11 38 2 0 6 -7 9 -15 5 -8 -3 -15 -1 -15 4 0 6 8 10 18 11
10 0 12 3 5 6 -23 9 -14 23 15 23 15 0 34 5 42 10 13 8 12 10 -5 10 -15 0 -16
3 -7 12 10 10 7 15 -10 25 -17 9 -19 12 -6 13 11 0 15 6 11 20 -4 13 -19 24
-47 31 -22 6 -54 15 -70 20 -38 12 -66 10 -161 -13z m142 -204 c-3 -3 -12 -4
-19 -1 -8 3 -5 6 6 6 11 1 17 -2 13 -5z m-57 -73 c0 -5 -7 -12 -16 -15 -22 -9
-24 -8 -24 9 0 8 9 15 20 15 11 0 20 -4 20 -9z m-200 -31 c0 -5 -2 -10 -4 -10
-3 0 -8 5 -11 10 -3 6 -1 10 4 10 6 0 11 -4 11 -10z m220 -34 c0 -17 -51 -36
-94 -36 -28 1 -26 3 24 25 66 28 70 29 70 11z"/>
<path d="M1714 2183 c-40 -23 -115 -86 -91 -77 10 3 17 1 17 -5 0 -6 -6 -11
-12 -11 -9 0 -8 -4 2 -11 11 -8 12 -12 3 -16 -23 -9 -14 -25 10 -17 25 8 85 6
100 -3 6 -4 4 -10 -4 -17 -8 -6 -15 -19 -17 -28 -2 -15 1 -16 29 -6 22 8 27
13 18 19 -21 13 71 2 116 -14 l40 -14 -60 -13 c-98 -20 -195 -80 -195 -120 0
-17 7 -20 53 -20 29 0 58 -5 64 -11 6 -6 21 -8 33 -4 17 5 19 10 9 21 -8 10
-8 14 0 14 6 0 11 6 11 14 0 29 21 27 31 -2 10 -30 36 -41 98 -43 l26 0 -23
-10 c-21 -8 -43 -6 -94 8 -10 2 -18 0 -18 -5 0 -5 19 -13 43 -17 23 -4 36 -9
30 -12 -21 -8 -15 -29 11 -42 55 -30 198 23 233 86 33 60 42 176 12 157 -5 -3
-9 10 -9 29 0 21 -7 41 -20 52 -11 10 -20 14 -20 9 0 -5 -4 -4 -8 2 -15 24
-141 76 -212 89 -41 7 -88 18 -103 24 -40 15 -68 14 -103 -6z m-34 -113 c-20
-13 -33 -13 -25 0 3 6 14 10 23 10 15 0 15 -2 2 -10z"/>
<path d="M2995 1850 c-3 -6 1 -7 9 -4 18 7 21 14 7 14 -6 0 -13 -4 -16 -10z"/>
<path d="M5112 1010 c-2 -52 -5 -117 -7 -145 -3 -27 -9 -131 -15 -230 l-10
-180 -32 -27 c-18 -16 -37 -28 -42 -28 -15 0 -406 -154 -406 -160 0 -10 472
-205 488 -202 10 2 20 7 25 11 4 4 6 243 4 532 -1 288 -3 481 -5 429z"/>
<path d="M3145 960 c3 -5 8 -10 11 -10 2 0 4 5 4 10 0 6 -5 10 -11 10 -5 0 -7
-4 -4 -10z"/>
<path d="M3193 303 c-15 -5 -17 -23 -4 -23 5 0 11 7 15 15 3 8 4 15 3 14 -1 0
-8 -3 -14 -6z"/>
<path d="M44 115 c-1 -15 2 -25 8 -23 5 2 9 7 9 11 -1 4 -1 14 -1 22 0 26 -15
16 -16 -10z"/>
<path d="M1 70 c0 -39 22 -79 34 -59 4 6 3 14 -3 18 -5 3 -15 22 -20 41 l-10
35 -1 -35z"/>
<path d="M3070 65 c-7 -8 -17 -12 -23 -8 -6 3 -7 1 -3 -6 4 -6 2 -18 -4 -26
-20 -24 -5 -17 30 14 19 16 28 31 22 34 -5 4 -15 0 -22 -8z"/>
</g>
</svg>
